<!--?xml version="1.0" encoding="utf-8"?-->
<!-- Generator: Adobe Illustrator 15.0.0, SVG Export Plug-In . SVG Version: 6.00 Build 0)  -->

<svg xmlns="http://www.w3.org/2000/svg" xmlns:xlink="http://www.w3.org/1999/xlink" width="428.166px" height="428.166px" viewBox="0 0 428.166 428.166">
<path d="M152.729,263.313c0.238-0.097,0.488-0.182,0.737-0.271c1.439-0.533,2.902-1.026,4.389-1.52c0,0,3.627-1.195,4.625-1.502
	c1.381-0.419,2.788-0.799,4.184-1.173l1.976-0.527c1.021-0.272,2.044-0.55,3.07-0.8c1.543-0.374,3.128-0.69,4.707-1.008l1.237-0.261
	c1.145-0.25,2.292-0.498,3.448-0.69c1.607-0.294,3.267-0.532,4.935-0.771l2.055-0.299c0.842-0.12,1.663-0.251,2.517-0.347
	c1.871-0.227,3.775-0.386,5.689-0.544l1.726-0.142v-30.909h-52.227C146.687,236.128,149.008,249.8,152.729,263.313z" id="path-0" style="position: relative;"></path>
<path d="M193.18,277.302c-0.646,0.079-4.069,0.601-4.069,0.601c-1.369,0.193-2.747,0.386-4.105,0.635
	c-0.76,0.132-3.46,0.704-3.46,0.704l-1.153,0.237c-1.179,0.249-2.358,0.489-3.511,0.771c-0.748,0.181-4.137,1.094-4.137,1.094
	c-1.284,0.346-2.548,0.687-3.82,1.071c-0.987,0.306-1.973,0.636-2.96,0.975l-0.847,0.29c-1.348,0.437-2.688,0.879-3.998,1.366
	c-0.354,0.125-0.704,0.26-1.046,0.401c8.718,22.329,21.445,44.626,37.943,66.495v-75.094l-0.25,0.022
	C196.226,276.99,194.694,277.121,193.18,277.302z" id="path-1" style="position: relative;"></path>
<path d="M161.829,140.013c0.953,0.277,1.939,0.522,2.928,0.77c0,0,3.935,1.009,4.649,1.168c1.38,0.323,2.735,0.578,4.07,0.833
	c0,0,2.992,0.598,3.672,0.708c1.318,0.227,2.619,0.396,3.912,0.57c0,0,3.367,0.481,3.971,0.552c1.439,0.156,2.89,0.266,4.343,0.372
	l3.661,0.3c1.643,0.094,3.31,0.15,4.976,0.187V67.754c-12.45,15.785-28.842,40.304-39.964,71.079L161.829,140.013z" id="path-2" style="position: relative;"></path>
<path d="M188.688,168.299c-2.293-0.167-4.231-0.311-6.17-0.532c-0.785-0.087-3.548-0.476-3.548-0.476l-1.213-0.157
	c-1.451-0.193-2.891-0.392-4.33-0.627c-0.999-0.175-4.804-0.918-4.804-0.918c-1.383-0.272-2.769-0.541-4.141-0.847
	c-0.952-0.221-3.854-0.953-3.854-0.953c-1.663-0.422-3.319-0.848-4.954-1.306c-1.058-0.301-3.866-1.171-3.866-1.171
	c-0.17-0.06-0.354-0.116-0.524-0.171c-3.091,12.621-4.984,25.394-5.66,38.104h52.374v-30.465c-2.085-0.04-4.174-0.122-6.257-0.238
	C191.038,168.504,188.688,168.299,188.688,168.299z" id="path-3" style="position: relative;"></path>
<path d="M103.736,291.915c1.783-1.479,3.118-2.603,4.499-3.685c1.134-0.89,2.292-1.756,3.46-2.618
	c1.391-1.032,2.797-2.063,4.22-3.049c1.19-0.82,2.39-1.622,3.604-2.427c1.451-0.951,2.889-1.869,4.354-2.766
	c1.248-0.771,2.494-1.508,3.76-2.243c1.329-0.761,2.654-1.504,3.982-2.223c-4.719-16.597-7.542-33.492-8.423-50.351H49.594
	c2.335,32.66,14.283,63.087,34.802,88.61c1.009-1.19,1.916-2.271,2.869-3.309c0.644-0.732,1.329-1.445,2.006-2.167l0.797-0.827
	c1.451-1.548,2.619-2.782,3.82-3.979c0.772-0.767,1.567-1.508,2.356-2.256l0.715-0.663c1.295-1.224,2.593-2.438,3.933-3.617
	C101.814,293.524,102.771,292.714,103.736,291.915z" id="path-4" style="position: relative;"></path>
<path d="M98.946,101.837c0.896,0.93,1.783,1.823,2.679,2.721c0.974,0.975,1.984,1.949,2.992,2.896
	c0.918,0.858,1.847,1.706,2.779,2.537c1.046,0.93,2.086,1.833,3.152,2.729c0.953,0.793,1.928,1.585,2.913,2.372
	c1.081,0.848,2.165,1.69,3.267,2.514c1.001,0.748,1.999,1.479,3.008,2.188c1.133,0.807,2.282,1.573,3.427,2.335
	c1.031,0.683,2.056,1.347,3.081,1.99c1.191,0.753,2.381,1.462,3.571,2.16c1.043,0.609,2.094,1.229,3.175,1.817
	c1.097,0.61,2.188,1.173,3.267,1.734c0.443,0.221,0.843,0.431,1.213,0.621c12.229-33.565,29.939-60.386,43-77.335
	c-32.139,5.96-61.807,21.645-84.913,45.017c0.181,0.204,0.365,0.405,0.547,0.604C97.044,99.782,97.983,100.825,98.946,101.837z" id="path-5" style="position: relative;"></path>
<path d="M135.637,297.504c-1.294,0.793-2.548,1.576-3.798,2.41c-1.042,0.686-2.071,1.404-3.091,2.125
	c-1.236,0.855-2.448,1.74-3.638,2.63c-1.012,0.76-2.01,1.535-2.996,2.306c-1.169,0.918-2.321,1.872-3.472,2.835
	c-0.941,0.805-1.902,1.638-2.853,2.488c-1.134,0.998-2.236,2.019-3.312,3.038c-0.915,0.874-1.822,1.751-2.72,2.654
	c-1.08,1.077-2.108,2.164-3.128,3.253c-0.87,0.935-1.75,1.869-2.582,2.829c-1.011,1.127-1.986,2.284-2.938,3.44
	c-0.251,0.306-0.489,0.589-0.715,0.86c22.946,21.444,50.787,35.336,81.341,40.619c-18.48-24.046-32.742-48.747-42.511-73.664
	C139.077,295.406,136.699,296.835,135.637,297.504z" id="path-6" style="position: relative;"></path>
<path d="M130.43,152.958c-0.059-0.028-0.122-0.062-0.182-0.09c-1.212-0.575-2.414-1.179-3.616-1.789
	c-1.52-0.771-2.981-1.545-4.432-2.327c-1.191-0.652-2.358-1.313-3.523-1.981c-1.489-0.859-2.903-1.724-4.319-2.606
	c-1.145-0.702-2.293-1.422-3.424-2.165c-1.405-0.929-2.789-1.881-4.164-2.834c-1.295-0.916-2.298-1.625-3.295-2.355
	c-1.296-0.958-2.571-1.955-3.844-2.962l-3.308-2.627c-1.156-0.963-2.27-1.944-3.377-2.925c0,0-2.797-2.457-3.523-3.134
	c-1.329-1.218-2.618-2.508-3.914-3.786c0,0-2.043-1.996-2.652-2.616c-0.871-0.913-1.723-1.833-2.559-2.769
	c-17.982,24.43-28.511,53.009-30.688,83.254h73.587C124.005,183.822,126.442,168.289,130.43,152.958z" id="path-7" style="position: relative;"></path>
<path d="M310.728,126.922c-1.644,1.456-2.993,2.653-4.376,3.803c-1.179,0.969-2.347,1.908-3.525,2.843
	c-1.44,1.128-2.857,2.211-4.297,3.274c-1.225,0.901-2.46,1.776-3.707,2.641c-1.464,1.023-2.947,2.021-4.456,2.99
	c-1.236,0.805-2.482,1.59-3.753,2.355c5.362,18.016,8.56,36.277,9.523,54.415h73.612c-2.477-35.068-15.876-67.259-39.047-93.704
	c-1.106,1.439-2.104,2.717-3.141,3.958c-0.846,1.012-1.701,1.981-2.546,2.936l-0.431,0.481c-1.343,1.54-2.504,2.852-3.695,4.119
	c-0.76,0.816-1.558,1.606-2.33,2.395l-0.832,0.842c-1.311,1.313-2.598,2.607-3.929,3.854
	C312.802,125.077,311.754,126.001,310.728,126.922z" id="path-8" style="position: relative;"></path>
<path d="M265.847,155.527c-0.477,0.195-0.941,0.394-1.419,0.597c-1.71,0.715-3.093,1.281-4.489,1.823
	c-1.71,0.644-3.41,1.237-5.112,1.817c-1.574,0.55-2.9,1.015-4.238,1.44c-1.667,0.521-3.322,0.981-4.976,1.445l-1.202,0.329
	c-1.128,0.32-2.267,0.634-3.424,0.924c-1.451,0.365-2.924,0.687-4.41,1.002c0,0-4.489,0.964-5.362,1.123
	c-1.723,0.317-3.458,0.578-5.203,0.842l-2.188,0.329c-0.839,0.127-1.667,0.261-2.505,0.366v31.691h52
	C272.455,184.913,269.951,170.253,265.847,155.527z" id="path-9" style="position: relative;"></path>
<path d="M287.771,272.699c1.417,0.76,2.822,1.547,4.229,2.341c1.27,0.742,2.471,1.457,3.673,2.182
	c1.502,0.914,2.977,1.86,4.449,2.817c1.31,0.855,2.426,1.604,3.543,2.375c1.43,0.998,2.856,2.041,4.285,3.106
	c1.111,0.822,2.245,1.655,3.356,2.522c1.28,0.998,2.544,2.04,3.797,3.078c0,0,2.755,2.307,3.548,3.009
	c1.372,1.219,2.698,2.443,4.025,3.685c0,0,2.29,2.159,2.981,2.841c1.331,1.325,2.596,2.657,3.877,4.001c0,0,2.107,2.212,2.766,2.935
	c0.975,1.09,1.916,2.199,2.846,3.3c20.384-25.473,32.264-55.797,34.588-88.346h-73.596
	C295.263,239.348,292.453,256.177,287.771,272.699z" id="path-10" style="position: relative;"></path>
<path d="M315.59,323.901c-0.86-0.964-1.768-1.949-2.675-2.915c-0.998-1.058-1.995-2.091-3.026-3.123
	c-0.919-0.918-1.87-1.836-2.817-2.749c-1.06-0.991-2.12-1.967-3.203-2.93c-0.986-0.885-1.961-1.724-2.947-2.557
	c-1.121-0.94-2.244-1.853-3.366-2.742c-1.043-0.811-2.068-1.609-3.117-2.397c-1.129-0.851-2.318-1.689-3.503-2.53
	c-1.247-0.86-2.211-1.541-3.187-2.175c-1.235-0.817-2.46-1.571-3.685-2.336c-1.093-0.675-2.188-1.345-3.286-1.984
	c-0.193-0.119-0.385-0.227-0.579-0.334c-9.776,24.967-24.06,49.75-42.578,73.862c30.642-5.295,58.576-19.266,81.576-40.856
	c-0.203-0.249-0.408-0.498-0.623-0.736C317.496,326.11,316.555,324.995,315.59,323.901z" id="path-11" style="position: relative;"></path>
<path d="M281.956,120.05c1.111-0.777,2.199-1.573,3.287-2.379c1.213-0.895,2.403-1.81,3.582-2.746
	c1.065-0.847,2.104-1.706,3.141-2.57c1.16-0.981,2.295-1.969,3.424-2.979c1.031-0.91,2.006-1.833,2.992-2.769
	c1.089-1.043,2.177-2.101,3.243-3.197c0.964-0.981,1.905-1.95,2.822-2.95c1.043-1.125,2.074-2.268,3.084-3.436
	c0.907-1.031,1.791-2.066,2.664-3.124c0.974-1.19,1.939-2.431,2.901-3.668c0.306-0.408,0.617-0.813,0.93-1.219
	c-21.591-18.528-47.284-30.787-75.115-35.882c12.923,16.715,28.171,40.125,39.813,69.093
	C279.806,121.517,280.89,120.792,281.956,120.05z" id="path-12" style="position: relative;"></path>
<path d="M258.529,285c-1.299-0.477-2.579-0.896-3.877-1.327c0,0-3.021-1.02-3.952-1.304c-1.042-0.316-2.137-0.606-3.241-0.906
	c0,0-3.787-1.032-4.66-1.235c-1.235-0.307-2.46-0.556-3.685-0.806l-2.052-0.432c-0.776-0.164-1.548-0.334-2.324-0.464
	c-1.644-0.301-3.276-0.522-4.908-0.749l-1.111-0.17c-0.714-0.118-1.44-0.227-2.165-0.317c-1.666-0.191-3.311-0.329-4.954-0.452
	l-0.301-0.023v75.179c16.5-21.869,29.226-44.24,37.943-66.722C259.017,285.181,258.768,285.091,258.529,285z" id="path-13" style="position: relative;"></path>
<path d="M227.128,143.088c0.766-0.139,1.514-0.314,2.261-0.477l1.383-0.309c1.938-0.405,3.373-0.713,4.79-1.065
	c0.895-0.221,1.785-0.476,2.663-0.731l0.986-0.286c1.57-0.429,3.084-0.848,4.58-1.329c0.941-0.294,1.843-0.61,2.772-0.936
	l1.996-0.694c1.121-0.382,2.232-0.774,3.332-1.197c0.771-0.303,5.85-2.419,6.609-2.752c-10.906-27.93-25.802-50.367-37.185-65.087
	v75.767l1.451-0.218C224.224,143.564,225.693,143.354,227.128,143.088z" id="path-14" style="position: relative;"></path>
<path d="M210.08,9.003C98.47,9.003,8,99.479,8,211.083s90.476,202.08,202.08,202.08c111.605,0,202.086-90.471,202.086-202.074
	C412.166,99.485,321.686,9.003,210.08,9.003z M343.149,337.17c-35.098,37.093-82.506,57.525-133.485,57.525
	c-50.834,0-98.14-20.331-133.214-57.243c-32.613-34.315-50.584-79.253-50.584-126.548c0-44.444,16.118-87.361,45.377-120.846
	l0.011-0.011c34.947-40,85.4-62.939,138.409-62.939c48,0,93.424,18.427,127.92,51.878c35.982,34.9,55.831,81.682,55.876,131.738
	C393.46,258.042,375.589,302.877,343.149,337.17z" id="path-15" style="position: relative;"></path>
<path d="M229.139,254.131c0.84,0.107,3.759,0.549,3.759,0.549c1.915,0.268,3.832,0.546,5.736,0.868
	c0.935,0.171,1.865,0.369,2.794,0.567l1.157,0.243c2.119,0.426,3.775,0.767,5.408,1.151c0.928,0.227,1.859,0.476,2.8,0.727
	l1.179,0.322c1.756,0.465,3.492,0.931,5.215,1.445c0.952,0.29,3.99,1.287,3.99,1.287c1.701,0.562,3.379,1.117,5.033,1.729
	c0.113,0.033,0.217,0.079,0.318,0.118c3.707-13.644,5.986-27.241,6.813-40.572h-52.033v30.869c0.101,0.011,1.404,0.124,1.404,0.124
	C224.876,253.729,227.008,253.893,229.139,254.131z" id="path-16" style="position: relative;"></path>
</svg>
